HIERARCHY
ROOT Hips
{
  OFFSET 3.13124 94.3669 -3.18751
  CHANNELS  6 Xposition Yposition Zposition Zrotation Xrotation Yrotation
  JOINT LeftUpLeg
  {
    OFFSET 8.64259 1.95398 -2.38835
    CHANNELS 3 Zrotation Xrotation Yrotation
    JOINT LeftLeg
    {
      OFFSET 43.7702 0 0
      CHANNELS 3 Zrotation Xrotation Yrotation
      JOINT LeftFoot
      {
        OFFSET 40.6238 0 0
        CHANNELS 3 Zrotation Xrotation Yrotation
        JOINT LeftToeBase
        {
          OFFSET 12.7242 0 0
          CHANNELS 3 Zrotation Xrotation Yrotation
          End Site
          {
            OFFSET 0 0 0
          }
        }
      }
    }
  }
  JOINT RightUpLeg
  {
    OFFSET -8.2249 1.95398 -2.59336
    CHANNELS 3 Zrotation Xrotation Yrotation
    JOINT RightLeg
    {
      OFFSET 43.5653 0 0
      CHANNELS 3 Zrotation Xrotation Yrotation
      JOINT RightFoot
      {
        OFFSET 40.6238 0 0
        CHANNELS 3 Zrotation Xrotation Yrotation
        JOINT RightToeBase
        {
          OFFSET 12.7242 0 0
          CHANNELS 3 Zrotation Xrotation Yrotation
          End Site
          {
            OFFSET 0 0 0
          }
        }
      }
    }
  }
  JOINT Spine
  {
    OFFSET 0.165834 0.87714 6.61349
    CHANNELS 3 Zrotation Xrotation Yrotation
    JOINT Spine1
    {
      OFFSET 7.38962 1.71661e-005 0
      CHANNELS 3 Zrotation Xrotation Yrotation
      JOINT Spine2
      {
        OFFSET 11.9445 1.14441e-005 0
        CHANNELS 3 Zrotation Xrotation Yrotation
        JOINT Spine3
        {
          OFFSET 14.7254 4.19617e-005 0
          CHANNELS 3 Zrotation Xrotation Yrotation
          JOINT Spine4
          {
            OFFSET 10.9679 0 0
            CHANNELS 3 Zrotation Xrotation Yrotation
            JOINT RightShoulder
            {
              OFFSET 2.46616 -1.6653 3.69651
              CHANNELS 3 Zrotation Xrotation Yrotation
              JOINT RightArm
              {
                OFFSET 13.0012 0 0
                CHANNELS 3 Zrotation Xrotation Yrotation
                JOINT RightForeArm
                {
                  OFFSET 28.7848 1.52588e-005 0
                  CHANNELS 3 Zrotation Xrotation Yrotation
                  JOINT RightHand
                  {
                    OFFSET 26.5688 1.52588e-005 0
                    CHANNELS 3 Zrotation Xrotation Yrotation
                    End Site
                    {
                      OFFSET 0 0 0
                    }
                  }
                }
              }
            }
            JOINT LeftShoulder
            {
              OFFSET 2.38034 -1.29275 -3.75231
              CHANNELS 3 Zrotation Xrotation Yrotation
              JOINT LeftArm
              {
                OFFSET 16.3182 6.10352e-005 0
                CHANNELS 3 Zrotation Xrotation Yrotation
                JOINT LeftForeArm
                {
                  OFFSET 27.0901 0 0
                  CHANNELS 3 Zrotation Xrotation Yrotation
                  JOINT LeftHand
                  {
                    OFFSET 24.5451 1.52588e-005 0
                    CHANNELS 3 Zrotation Xrotation Yrotation
                    End Site
                    {
                      OFFSET 0 0 0
                    }
                  }
                }
              }
            }
            JOINT Neck
            {
              OFFSET 5.0226 -0.0266342 0
              CHANNELS 3 Zrotation Xrotation Yrotation
              JOINT Head
              {
                OFFSET 6.69363 2.86102e-005 0
                CHANNELS 3 Zrotation Xrotation Yrotation
                End Site
                {
                  OFFSET 0 0 0
                }
              }
            }
          }
        }
      }
    }
  }
}
MOTION
Frames:	13
Frame Time:	0.0333333
99.8618 91.1214 -69.5913 -75.7825 36.3782 -88.5851 179.557 32.7179 96.3244 -47.4866 5.05832 0.749037 65.6186 3.08851 1.68205 28.7808 3.66588e-006 1.6696e-006 178.517 12.7294 85.0167 -16.0831 40.6688 3.19952 41.6697 11.5225 10.4707 28.7808 1.65427e-005 2.61978e-005 0.598945 6.09106 -92.1872 14.6704 0.0887456 -3.14653 2.99592 -0.0497439 -3.14738 -19.5124 1.0298 -2.97474 0.500246 1.02979 -2.97475 111.624 -50.1977 -67.3464 -34.6246 45.3236 -22.5868 1.02556 59.3646 -7.71692 -31.8184 17.615 -63.253 -77.954 -21.8755 96.6332 13.1711 -30.881 20.6382 84.4157 50.7509 -86.9335 -15.0335 0.447671 -9.18996 59.4788 -8.96856 6.47063 -39.5468 -20.2884 21.5648 
99.6246 91.5504 -71.3168 -76.5044 29.0824 -86.9904 179.836 34.6669 94.3214 -43.5227 0.2759 0.412651 65.044 -1.23897 -0.720846 28.7808 3.66588e-006 1.6696e-006 178.956 7.98264 86.3261 -13.3819 47.3447 4.14925 40.6775 12.6359 11.6081 28.7808 1.65427e-005 2.61978e-005 0.888532 6.14505 -92.2971 14.5621 0.587817 -3.49042 2.88646 0.433552 -3.51297 -19.6176 1.61033 -3.15227 0.39499 1.6103 -3.15228 109.52 -49.2076 -70.4511 -35.9533 48.7819 -27.7184 1.15946 60.1022 -7.83612 -32.6775 19.3622 -66.4604 -76.3083 -22.977 100.265 14.0385 -30.543 23.8636 95.2362 50.0315 -95.4322 -18.2619 1.53861 -16.0149 60.2891 -9.02184 4.58278 -38.5167 -19.3654 22.9096 
98.6915 91.9363 -72.8431 -77.2582 19.8641 -85.7261 -179.775 35.3017 90.7439 -38.0186 -10.8685 -0.321574 60.8683 -4.65051 -2.91415 28.7808 3.66588e-006 1.6696e-006 179.758 6.11445 87.1987 -18.3115 54.4344 5.46719 38.8543 16.5506 15.5582 28.7808 1.65427e-005 2.61978e-005 0.945648 6.11054 -92.2033 14.6329 0.712474 -3.53496 2.95727 0.556272 -3.56285 -19.5472 1.74141 -3.15816 0.465485 1.7414 -3.15818 106.767 -49.9059 -74.8241 -38.7813 53.5006 -33.1328 3.54524 69.3358 -10.0383 -40.7438 27.417 -72.2783 -75.3447 -24.2557 102.292 14.5734 -29.8818 28.6778 98.5959 47.8532 -97.8758 -21.6461 2.30045 -18.543 58.8118 -10.2619 2.1071 -37.0349 -18.668 23.863 
97.2504 92.2911 -73.8612 -77.3651 11.6286 -84.726 -179.99 33.4637 87.2075 -29.9133 -29.8161 -1.81373 52.0135 -0.026774 -0.425037 28.7808 3.66588e-006 1.6696e-006 -179.548 4.75199 87.9632 -22.5811 57.3929 6.11846 33.2758 20.7578 21.4161 28.7808 1.65427e-005 2.61978e-005 1.17581 5.94088 -92.0397 14.9852 1.20865 -3.71691 3.30934 1.04398 -3.7664 -19.1971 2.2693 -3.18131 0.81554 2.26931 -3.18132 103.821 -49.9044 -79.4088 -35.1166 49.5867 -29.6117 -1.73901 28.3435 -5.85608 -37.7023 19.2752 -58.9909 -74.6689 -26.9904 103.47 16.2715 -28.3053 31.9815 109.286 50.1875 -106.606 -15.3654 1.8647 -21.6315 57.5416 -10.0429 4.28683 -38.1863 -19.2462 21.1742 
95.1538 92.4884 -74.5257 -77.7146 4.75089 -83.1286 179.314 30.5312 85.6558 -26.7913 -47.7941 -4.10059 48.9425 4.86677 3.18578 28.7808 3.66588e-006 1.6696e-006 -178.84 3.6183 89.5395 -26.8161 58.2634 6.29386 26.6705 21.8248 25.4156 28.7808 1.65427e-005 2.61978e-005 1.52018 5.76814 -91.9947 15.3555 1.98199 -4.13209 3.67925 1.79837 -4.21514 -18.8306 3.13159 -3.34663 1.18208 3.13161 -3.34666 101.586 -49.6374 -82.898 -24.4533 56.2665 -36.375 16.7564 43.111 -30.734 -16.1921 8.48444 -62.2608 -73.6132 -29.8042 105.305 17.5535 -28.0849 35.7198 112.531 48.0229 -108.771 -17.1424 2.71698 -25.687 56.167 -9.22006 7.50076 -40.1481 -19.8891 18.1311 
92.8933 92.0559 -74.9284 -78.3926 -2.36301 -81.1156 179.386 28.1668 85.3016 -27.6438 -42.6326 -3.40245 53.4041 5.61587 3.6199 28.7808 3.66588e-006 1.6696e-006 -178.388 2.40325 90.9503 -30.5518 46.6527 3.70979 18.5845 28.226 37.0519 28.7808 1.65427e-005 2.61978e-005 2.01882 5.6209 -92.0499 15.6859 2.85176 -4.89026 4.00839 2.63408 -5.01082 -18.5029 4.18846 -3.80815 1.50973 4.18844 -3.80818 99.802 -46.3792 -85.8495 -30.2014 50.6488 -38.5227 -1.48097 37.2789 -5.60763 -39.145 21.0235 -61.1348 -72.4901 -34.1563 106.896 19.1031 -29.0599 38.5852 111.386 44.1577 -106.948 -26.5248 5.10868 -28.3429 54.4468 -6.09372 14.6297 -42.8817 -19.6152 11.5891 
90.8744 91.318 -75.5192 -79.8305 -11.2725 -79.4915 179.693 24.6284 85.8994 -30.0647 -26.854 -1.66532 61.8647 2.62839 1.47286 28.7808 3.66588e-006 1.6696e-006 -178.31 9.2908 94.6477 -50.3875 67.5644 9.12915 15.7981 12.1922 18.4129 28.7808 1.65427e-005 2.61978e-005 2.43579 5.64389 -92.2906 15.6671 3.59213 -5.50673 3.98865 3.34624 -5.65711 -18.5254 5.08289 -4.18779 1.48723 5.08288 -4.1878 99.1599 -43.1633 -87.1154 -27.9985 52.3691 -44.1442 1.20114 60.3269 -7.87284 -40.3313 25.1478 -69.0009 -71.5565 -38.4683 108.007 20.2811 -29.4187 39.4833 111.474 43.395 -106.827 -30.2115 6.50154 -30.6251 52.4671 -3.44798 20.3049 -43.4033 -19.072 7.39797 
89.3937 90.0327 -76.5928 -81.2272 -20.9655 -80.4127 -179.831 23.626 84.8165 -35.9958 -14.1737 -0.62571 66.2207 1.94396 1.07732 28.7808 3.66588e-006 1.6696e-006 -179.502 13.2819 96.1821 -60.8094 63.707 7.05622 22.4771 7.82416 10.7321 28.7808 1.65427e-005 2.61978e-005 2.82354 5.85816 -91.9736 15.2798 4.40475 -5.20683 3.60507 4.17158 -5.39533 -18.9434 5.76525 -3.64221 1.06926 5.76526 -3.64224 99.0146 -41.565 -87.4785 -26.2128 48.8265 -39.6156 -1.19364 39.9987 -5.89744 -57.8424 34.0107 -63.6694 -69.7039 -41.019 110.77 20.8722 -29.096 39.1661 105.663 46.1441 -103.024 -24.4068 5.24722 -31.3281 53.4133 -1.54761 24.7488 -46.8659 -18.6323 2.01042 
88.159 88.2027 -77.7149 -82.87 -29.8449 -83.656 -179.277 23.2619 81.7266 -41.9504 -10.0216 -0.276443 70.705 2.7886 1.50488 28.7808 3.66588e-006 1.6696e-006 179.411 19.8031 94.0121 -73.4354 53.0004 3.82646 31.414 4.38223 5.47987 28.7808 1.65427e-005 2.61978e-005 3.27773 6.29252 -91.1947 14.4533 5.4919 -4.35064 2.78565 5.29622 -4.58628 -19.8175 6.53823 -2.50798 0.195172 6.53823 -2.50801 99.5525 -41.0132 -86.5814 -19.4475 45.1067 -41.5527 -1.79966 31.0166 -5.49313 -53.9731 28.0231 -58.0263 -71.2421 -42.3914 107.997 20.0875 -25.8299 38.9367 101.359 55.1297 -100.777 -14.3258 3.0073 -33.2918 56.1087 0.178499 26.9047 -49.6112 -18.3014 -0.707603 
86.6968 87.3385 -78.7742 -83.7374 -39.3813 -85.453 -179.082 21.7792 80.9747 -44.2468 -2.92469 0.203141 74.3581 4.73521 2.36142 28.7808 3.66588e-006 1.6696e-006 179.345 24.1282 92.4705 -78.8031 53.0036 3.62685 43.1997 2.31994 2.52513 28.7808 1.65427e-005 2.61978e-005 3.45099 6.62333 -91.2145 13.8197 5.85901 -4.49146 2.15334 5.65629 -4.74524 -20.4645 6.93385 -2.50986 -0.451882 6.93387 -2.50989 98.1286 -32.1166 -90.0761 -16.8286 41.5409 -37.2318 -2.01988 27.1962 -5.36462 -52.7539 24.2236 -52.5566 -70.4221 -48.1744 108.55 21.0033 -26.7285 43.9687 94.3508 48.8766 -94.7026 -24.1796 5.20188 -31.7246 51.2248 4.17793 35.0058 -47.9173 -16.3026 -6.33848 
84.7157 87.0728 -79.9856 -85.1621 -50.2762 -86.8419 -179.026 19.1647 82.2363 -44.821 6.56125 0.759115 77.5915 7.21131 3.30089 28.7808 3.66588e-006 1.6696e-006 -179.988 27.6301 89.682 -80.0049 42.3941 2.09834 50.7191 2.99058 2.48952 28.7808 1.65427e-005 2.61978e-005 3.35178 6.93201 -91.2211 13.2153 5.65824 -4.69093 1.5475 5.44665 -4.93623 -21.0603 6.80827 -2.76395 -1.04764 6.80824 -2.76399 96.3763 -26.9991 -94.5218 -10.6387 38.9786 -42.0474 -1.7376 32.0398 -5.52794 -46.1981 21.4838 -53.659 -68.6233 -52.3305 110.677 19.9492 -29.7137 46.6593 91.1882 37.4195 -92.2574 -50.2375 8.62564 -23.8921 45.9324 5.96339 38.9544 -43.4289 -14.232 -9.2318 
82.0097 87.8986 -80.9478 -85.1096 -62.1334 -86.807 -179.19 17.1464 84.9707 -43.0665 17.1814 1.32915 75.9856 8.89583 4.09981 28.7808 3.66588e-006 1.6696e-006 -179.029 28.2375 86.5247 -72.9739 37.4018 1.74743 58.9881 6.24031 4.076 28.7808 1.65427e-005 2.61978e-005 3.01776 6.97173 -91.1853 13.0997 5.11757 -4.37227 1.43075 4.92037 -4.59317 -21.1601 6.19412 -2.62976 -1.14741 6.1941 -2.62978 93.8839 -29.1447 -99.2098 -5.71034 37.7895 -48.9209 -0.795671 44.8089 -6.18811 -30.453 17.2194 -63.7452 -66.1072 -51.9026 114.444 18.3983 -26.9049 51.2144 99.5827 39.0256 -97.7028 -31.8783 7.60927 -32.7916 41.554 3.98416 33.5854 -37.2658 -12.956 -4.68698 
78.764 89.7893 -81.3308 -84.1996 -74.7737 -85.7821 -179.177 14.1271 88.4672 -37.4332 29.625 1.97468 70.4137 8.29102 4.16681 28.7808 3.66588e-006 1.6696e-006 -178.852 25.5974 83.4915 -59.7464 31.5814 1.51379 65.0661 5.34998 2.94103 28.7808 1.65427e-005 2.61978e-005 3.12376 6.9568 -91.5343 13.1298 5.26348 -4.87574 1.45944 5.04411 -5.10243 -21.1269 6.48397 -3.06661 -1.11422 6.48395 -3.06664 93.3228 -27.1901 -100.954 -2.27637 34.1182 -45.2892 -1.76276 31.6272 -5.51484 -31.0471 16.7602 -61.9568 -65.7975 -57.3568 113.874 15.7303 -26.0388 52.4393 89.1961 38.4847 -90.9852 -31.5466 5.90909 -27.1687 34.9716 6.67312 40.9556 -36.5324 -10.1188 -10.3938 
